<?xml version="1.0" standalone="no"?><!DOCTYPE svg PUBLIC "-//W3C//DTD SVG 1.1//EN" "http://www.w3.org/Graphics/SVG/1.1/DTD/svg11.dtd"><svg t="1696324540799" class="icon" viewBox="0 0 1024 1024" version="1.1" xmlns="http://www.w3.org/2000/svg" p-id="1817" xmlns:xlink="http://www.w3.org/1999/xlink" width="200" height="200"><path d="M1023.795365 383.845742a31.987145 31.987145 0 0 0-12.794858-25.589716C486.411327-26.229459 533.752301 7.676915 526.715129 4.158329a29.748045 29.748045 0 0 0-25.909587-1.919229C492.488884 5.437815 14.920807 356.656669 10.762478 360.814997a29.428174 29.428174 0 0 0-10.555758 26.22946c0 7.037172-7.037172-35.18586 68.132619 323.390037a31.987145 31.987145 0 1 0 63.974291-13.434601l-56.937119-262.614462 201.519015 75.489663a31.987145 31.987145 0 1 0 22.391001-60.135833l-200.5594-75.169791L480.013897 95.961435v223.910017a31.987145 31.987145 0 0 0 63.974291 0V95.961435l381.28677 279.567649-200.5594 75.169791a31.987145 31.987145 0 0 0 22.391002 60.135833l201.519014-75.489662-102.678736 486.204606-149.699839-174.649812a31.987145 31.987145 0 0 0-48.620461 41.583288L794.447534 959.614355H229.554551l146.820996-171.131227a31.987145 31.987145 0 0 0-48.62046-41.583288l-149.69984 174.649812-20.151901-95.961435A31.987145 31.987145 0 0 0 119.838643 799.678629 31.987145 31.987145 0 0 0 96.168155 838.383075c31.987145 161.854955 31.987145 167.292769 43.182646 177.528655a31.987145 31.987145 0 0 0 18.872416 7.357044H160.142446c750.418426 0 710.114623 4.158329 724.188966-7.357044v-1.599357a41.583289 41.583289 0 0 0 5.757687-7.357043C895.846785 998.958544 1023.795365 390.563042 1023.795365 383.845742z" fill="#38004D" p-id="1818"></path><path d="M671.936768 799.678629H352.065317a31.987145 31.987145 0 0 1-31.987145-24.949973l-63.974291-287.884307a31.987145 31.987145 0 0 1 12.794858-31.987145l223.910017-159.935726a31.987145 31.987145 0 0 1 37.105088 0l223.910016 159.935726a31.987145 31.987145 0 0 1 12.794858 31.987145l-63.97429 287.884307A31.987145 31.987145 0 0 1 671.936768 799.678629z m-294.281735-63.97429h268.692019l53.738404-242.142689-188.084413-134.34601-188.084414 134.34601z" fill="#9F85EC" p-id="1819"></path></svg>