<?xml version="1.0" standalone="no"?><!DOCTYPE svg PUBLIC "-//W3C//DTD SVG 1.1//EN" "http://www.w3.org/Graphics/SVG/1.1/DTD/svg11.dtd"><svg t="1696324537122" class="icon" viewBox="0 0 1024 1024" version="1.1" xmlns="http://www.w3.org/2000/svg" p-id="1678" xmlns:xlink="http://www.w3.org/1999/xlink" width="200" height="200"><path d="M928 128h-32a32 32 0 0 0 0 64h32a32 32 0 0 1 32 32v128a32 32 0 0 1-32 32H544a32 32 0 0 1-25.6-12.8L456 288l62.4-83.2A32 32 0 0 1 544 192h224a32 32 0 0 0 0-64h-224a96 96 0 0 0-76.8 38.4L400 256H316.8a160 160 0 1 0 0 64h83.2l67.2 89.6A96 96 0 0 0 544 448h384a96 96 0 0 0 96-96V224a96 96 0 0 0-96-96zM160 384a96 96 0 1 1 96-96 96 96 0 0 1-96 96zM928 576H544a96 96 0 0 0-76.8 38.4L400 704H316.8a160 160 0 1 0 0 64h83.2l67.2 89.6A96 96 0 0 0 544 896h384a96 96 0 0 0 96-96v-128a96 96 0 0 0-96-96zM160 832a96 96 0 1 1 96-96 96 96 0 0 1-96 96z m800-32a32 32 0 0 1-32 32H544a32 32 0 0 1-25.6-12.8L456 736l62.4-83.2a32 32 0 0 1 25.6-12.8h384a32 32 0 0 1 32 32z" fill="#38004D" p-id="1679"></path><path d="M864 320h-192a32 32 0 0 1 0-64h192a32 32 0 0 1 0 64zM864 768h-192a32 32 0 0 1 0-64h192a32 32 0 0 1 0 64z" fill="#9F85EC" p-id="1680"></path></svg>