<?xml version="1.0" standalone="no"?><!DOCTYPE svg PUBLIC "-//W3C//DTD SVG 1.1//EN" "http://www.w3.org/Graphics/SVG/1.1/DTD/svg11.dtd"><svg t="1696324529199" class="icon" viewBox="0 0 1024 1024" version="1.1" xmlns="http://www.w3.org/2000/svg" p-id="1400" xmlns:xlink="http://www.w3.org/1999/xlink" width="200" height="200"><path d="M352 480a32 32 0 0 1-17.6-58.56l96-64c10.88-7.36 5.44-5.44 177.6-5.44a32 32 0 0 1 0 64h-150.4c-93.44 64-92.48 64-105.6 64zM288 416a32 32 0 0 1-27.2-48.96l160-256a32 32 0 0 1 28.8-15.04H608a32 32 0 0 1 0 64h-140.8l-152 240.96A32 32 0 0 1 288 416zM608 672c-170.88 0-166.4 2.24-177.6-5.44l-96-64a32 32 0 0 1 35.2-53.12L457.6 608H608a32 32 0 0 1 0 64zM608 928h-158.4a32 32 0 0 1-27.2-15.04l-160-256a32 32 0 0 1 54.4-33.92L467.2 864H608a32 32 0 0 1 0 64z" fill="#9F85EC" p-id="1401"></path><path d="M192 704a192 192 0 1 1 192-192 192 192 0 0 1-192 192z m0-320a128 128 0 1 0 128 128 128 128 0 0 0-128-128zM928 224h-256a96 96 0 0 1 0-192h256a96 96 0 0 1 0 192z m-256-128a32 32 0 0 0 0 64h256a32 32 0 0 0 0-64zM928 480h-256a96 96 0 0 1 0-192h256a96 96 0 0 1 0 192z m-256-128a32 32 0 0 0 0 64h256a32 32 0 0 0 0-64zM928 736h-256a96 96 0 0 1 0-192h32a32 32 0 0 1 0 64h-32a32 32 0 0 0 0 64h256a32 32 0 0 0 0-64h-96a32 32 0 0 1 0-64h96a96 96 0 0 1 0 192zM928 992h-256a96 96 0 0 1 0-192h256a96 96 0 0 1 0 192z m-256-128a32 32 0 0 0 0 64h256a32 32 0 0 0 0-64z" fill="#38004D" p-id="1402"></path></svg>