<?xml version="1.0" standalone="no"?><!DOCTYPE svg PUBLIC "-//W3C//DTD SVG 1.1//EN" "http://www.w3.org/Graphics/SVG/1.1/DTD/svg11.dtd"><svg t="1696325402054" class="icon" viewBox="0 0 1024 1024" version="1.1" xmlns="http://www.w3.org/2000/svg" p-id="9724" xmlns:xlink="http://www.w3.org/1999/xlink" width="200" height="200"><path d="M597.76 245.577143a215.954286 215.954286 0 0 1-284.708571 18.285714A227.657143 227.657143 0 0 1 335.177143 237.714286a170.605714 170.605714 0 0 1 14.811428-13.531429A213.942857 213.942857 0 0 1 384 201.142857c6.034286-3.474286 12.434286-6.4 18.285714-9.325714a219.428571 219.428571 0 0 1 43.337143-13.348572 225.645714 225.645714 0 0 1 24.868572-3.291428A215.04 215.04 0 0 1 619.702857 219.428571a227.657143 227.657143 0 0 1-21.942857 26.148572z" fill="#3A768C" p-id="9725"></path><path d="M480.548571 198.948571a9.691429 9.691429 0 0 1-14.08 0l-20.662857-20.662857a225.645714 225.645714 0 0 1 24.868572-3.291428l9.874285 9.874285a9.691429 9.691429 0 0 1 0 14.08zM424.045714 227.291429a10.057143 10.057143 0 0 1-14.08 0L384 201.142857c6.034286-3.474286 12.434286-6.4 18.285714-9.325714l21.577143 21.577143a9.691429 9.691429 0 0 1 0.182857 13.897143zM349.988571 223.817143L381.622857 256a9.874286 9.874286 0 0 1 0 14.262857 10.057143 10.057143 0 0 1-14.08 0L335.177143 237.714286z" fill="#4691A5" p-id="9726"></path><path d="M773.302857 420.571429a215.954286 215.954286 0 0 0-18.285714 284.708571 212.845714 212.845714 0 0 0 25.965714-22.125714 170.605714 170.605714 0 0 0 13.531429-14.811429 202.24 202.24 0 0 0 22.857143-33.645714 180.114286 180.114286 0 0 0 9.325714-18.285714 215.771429 215.771429 0 0 0 14.445714-43.52 225.645714 225.645714 0 0 0 2.56-24.32 214.125714 214.125714 0 0 0-44.434286-149.028572A228.754286 228.754286 0 0 0 773.302857 420.571429z" fill="#3A768C" p-id="9727"></path><path d="M819.748571 538.148571a9.691429 9.691429 0 0 0 0 14.08L841.142857 572.891429a225.645714 225.645714 0 0 0 2.56-24.32l-9.874286-9.874286a9.691429 9.691429 0 0 0-14.08-0.548572zM791.405714 594.651429a10.057143 10.057143 0 0 0 0 14.08l26.331429 26.331428a180.114286 180.114286 0 0 0 9.325714-18.285714l-21.394286-21.577143a10.24 10.24 0 0 0-14.262857-0.548571zM781.348571 683.52L749.714286 651.154286a10.057143 10.057143 0 0 1 0-14.08 9.874286 9.874286 0 0 1 14.262857 0l31.634286 31.634285z" fill="#458FA3" p-id="9728"></path><path d="M734.902857 608.731429a558.994286 558.994286 0 0 1-482.194286 157.257142 38.948571 38.948571 0 0 1 0-4.571428A870.4 870.4 0 0 0 657.188571 530.285714 873.508571 873.508571 0 0 0 887.771429 126.171429a36.571429 36.571429 0 0 1 4.388571 0 558.445714 558.445714 0 0 1-157.257143 482.56z" fill="#3A768C" p-id="9729"></path><path d="M734.902857 608.731429a558.994286 558.994286 0 0 1-482.194286 157.257142 38.948571 38.948571 0 0 1 0-4.571428A870.4 870.4 0 0 0 657.188571 530.285714 873.508571 873.508571 0 0 0 887.771429 126.171429a36.571429 36.571429 0 0 1 4.388571 0 558.445714 558.445714 0 0 1-157.257143 482.56z" fill="#3A768C" p-id="9730"></path><path d="M308.48 936.411429A550.217143 550.217143 0 0 1 176.822857 841.142857c-2.56-2.194286-4.754286-4.571429-7.131428-6.948571A558.994286 558.994286 0 0 1 73.142857 705.28a550.765714 550.765714 0 0 0 179.565714 60.708571 560.091429 560.091429 0 0 0 55.771429 170.422858z" fill="#3A768C" p-id="9731"></path><path d="M734.902857 608.731429a558.994286 558.994286 0 0 1-482.194286 157.257142 38.948571 38.948571 0 0 1 0-4.571428A870.4 870.4 0 0 0 657.188571 530.285714 873.508571 873.508571 0 0 0 887.771429 126.171429a36.571429 36.571429 0 0 1 4.388571 0 558.445714 558.445714 0 0 1-157.257143 482.56z" fill="#3A768C" p-id="9732"></path><path d="M73.142857 705.28a550.765714 550.765714 0 0 0 179.565714 60.708571L176.822857 841.142857c-2.56-2.194286-4.754286-4.571429-7.131428-6.948571A558.994286 558.994286 0 0 1 73.142857 705.28zM657.188571 530.285714a870.4 870.4 0 0 1-405.028571 230.4c-1.645714-10.422857-2.925714-21.394286-3.657143-32a554.971429 554.971429 0 0 1 11.154286-171.885714 500.845714 500.845714 0 0 1 18.285714-66.011429 580.205714 580.205714 0 0 1 25.051429-59.611428 587.154286 587.154286 0 0 1 30.72-54.857143A568.868571 568.868571 0 0 1 369.737143 329.142857a557.531429 557.531429 0 0 1 134.217143-120.32 559.908571 559.908571 0 0 1 384-82.102857A874.057143 874.057143 0 0 1 657.188571 530.285714z" fill="#77B5C7" p-id="9733"></path><path d="M742.034286 276.662857m-59.977143 0a59.977143 59.977143 0 1 0 119.954286 0 59.977143 59.977143 0 1 0-119.954286 0Z" fill="#142A30" p-id="9734"></path><path d="M756.114286 262.582857m-40.045715 0a40.045714 40.045714 0 1 0 80.091429 0 40.045714 40.045714 0 1 0-80.091429 0Z" fill="#2B5A66" p-id="9735"></path><path d="M721.738148 282.824138a29.988571 38.582857 45 1 0 54.564399-54.5644 29.988571 38.582857 45 1 0-54.564399 54.5644Z" fill="#FFFFFF" p-id="9736"></path><path d="M565.394286 312.137143a29.988571 29.988571 0 0 1-42.422857 0l-68.388572-68.571429a542.354286 542.354286 0 0 1 49.371429-35.474285l61.44 61.622857a29.988571 29.988571 0 0 1 0 42.422857zM452.388571 368.64a29.988571 29.988571 0 0 1-42.422857 0L369.737143 329.142857a543.451429 543.451429 0 0 1 40.228571-44.617143l42.422857 42.422857a29.988571 29.988571 0 0 1 0 41.691429zM395.702857 481.645714a29.805714 29.805714 0 0 1-42.24 0l-49.92-49.737143a587.154286 587.154286 0 0 1 30.72-54.857142L395.702857 438.857143a29.622857 29.622857 0 0 1 0 42.788571zM339.2 594.651429a29.988571 29.988571 0 0 1-42.422857 0l-36.571429-36.571429a500.845714 500.845714 0 0 1 18.285715-66.011429l60.708571 60.708572a29.988571 29.988571 0 0 1 0 41.874286z" fill="#89D4E5" p-id="9737"></path><path d="M775.131429 564.114286l-54.857143-54.857143a29.988571 29.988571 0 1 1 42.422857-42.24l47.36 47.36a566.857143 566.857143 0 0 1-34.925714 49.737143zM734.902857 608.731429a512 512 0 0 1-44.617143 40.228571l-25.965714-25.965714a29.988571 29.988571 0 1 1 42.422857-42.422857zM640.914286 684.434286a587.154286 587.154286 0 0 1-54.857143 30.72l-36.571429-36.571429a29.988571 29.988571 0 0 1 42.422857-42.422857zM527.177143 740.205714a493.714286 493.714286 0 0 1-66.011429 18.285715L438.857143 736a29.988571 29.988571 0 0 1 42.422857-42.422857z" fill="#458FA3" p-id="9738"></path></svg>