<?xml version="1.0" standalone="no"?><!DOCTYPE svg PUBLIC "-//W3C//DTD SVG 1.1//EN" "http://www.w3.org/Graphics/SVG/1.1/DTD/svg11.dtd"><svg t="1696324533298" class="icon" viewBox="0 0 1024 1024" version="1.1" xmlns="http://www.w3.org/2000/svg" p-id="1539" xmlns:xlink="http://www.w3.org/1999/xlink" width="200" height="200"><path d="M864 448V256c0-88-182.4-128-352-128a1027.84 1027.84 0 0 0-132.16 8.32 32 32 0 1 0 8.32 64A956.48 956.48 0 0 1 512 192c187.2 0 282.88 46.72 288 64 0 16.64-68.16 39.04-116.16 48.96a904.96 904.96 0 0 1-205.76 15.04C313.6 314.24 229.12 272.64 224 256c0-3.52 11.52-15.36 43.84-28.16a32 32 0 0 0 17.92-41.6 32 32 0 0 0-41.6-17.92C188.16 192 160 220.16 160 256v192a78.72 78.72 0 0 0 40 64A78.72 78.72 0 0 0 160 576v192c0 170.88 704 170.56 704 0v-192a78.72 78.72 0 0 0-40-64A78.72 78.72 0 0 0 864 448z m-64-114.24V448c-4.8 17.6-100.48 64-288 64s-283.2-46.72-288-64v-114.24c132.8 66.88 443.84 66.56 576 0zM512 832c-187.52 0-283.2-46.72-288-64v-114.24c132.48 66.56 443.2 66.88 576 0V768c-4.8 17.28-100.48 64-288 64z m288-256c0 10.24-38.08 28.8-81.92 40.64a852.16 852.16 0 0 1-240 23.36C313.6 634.24 229.12 592.64 224 576c0-4.16 13.44-16.96 50.56-32a940.16 940.16 0 0 0 474.88 0c37.76 15.36 50.56 28.48 50.56 32z" fill="#38004D" p-id="1540"></path><path d="M544 256a32 32 0 0 1-28.48-46.4l96-192A32 32 0 0 1 640 0h352a32 32 0 0 1 0 64H659.84l-87.36 174.4A32 32 0 0 1 544 256zM992 192h-64a32 32 0 0 1 0-64h64a32 32 0 0 1 0 64zM384 1024H32a32 32 0 0 1 0-64h328.96l56.64-170.24a32 32 0 1 1 60.8 20.48l-64 192A32 32 0 0 1 384 1024zM96 896H32a32 32 0 0 1 0-64h64a32 32 0 0 1 0 64z" fill="#9F85EC" p-id="1541"></path></svg>