<?xml version="1.0" standalone="no"?><!DOCTYPE svg PUBLIC "-//W3C//DTD SVG 1.1//EN" "http://www.w3.org/Graphics/SVG/1.1/DTD/svg11.dtd"><svg t="1696321760773" class="icon" viewBox="0 0 1024 1024" version="1.1" xmlns="http://www.w3.org/2000/svg" p-id="1377" xmlns:xlink="http://www.w3.org/1999/xlink" width="200" height="200"><path d="M409.655685 1013.652299a31.9966 31.9966 0 1 1 12.79864-63.9932A447.952405 447.952405 0 0 0 959.997211 543.942206h-63.993201A383.959204 383.959204 0 1 1 480.048205 127.986401V63.993201a447.952405 447.952405 0 0 0-176.9412 844.070317 31.9966 31.9966 0 0 1-30.076804 56.633983A511.945606 511.945606 0 0 1 512.044806 0a31.9966 31.9966 0 0 1 31.9966 31.9966v127.986402a31.9966 31.9966 0 0 1-31.9966 31.9966 319.966004 319.966004 0 1 0 319.966003 319.966004 31.9966 31.9966 0 0 1 31.996601-31.996601h127.986401a31.9966 31.9966 0 0 1 31.996601 31.996601 511.945606 511.945606 0 0 1-614.334727 501.706693z" fill="#38004D" p-id="1378"></path><path d="M512.044806 767.918409a255.972803 255.972803 0 0 1-223.976203-377.879851 31.9966 31.9966 0 0 1 49.594731-6.079354l101.429223 101.109257A31.9966 31.9966 0 0 1 448.051605 511.945606a63.993201 63.993201 0 1 0 63.993201-63.993201 33.59643 33.59643 0 0 1-28.157009-8.959048L384.058404 337.564134A31.9966 31.9966 0 0 1 390.137758 287.969403 255.972803 255.972803 0 1 1 512.044806 767.918409z m-185.580282-305.8875a191.979602 191.979602 0 1 0 135.665585-135.665585l57.593881 57.59388A127.986401 127.986401 0 1 1 384.058404 519.62479z" fill="#9F85EC" p-id="1379"></path></svg>